HIERARCHY
ROOT joint_Root
{
	OFFSET 0.0 0.0 0.0
	CHANNELS 6 Xposition Yposition Zposition Zrotation Xrotation Yrotation 
	JOINT Hips
	{
		OFFSET -17.1583 93.1646 452.98
		CHANNELS 6 Xposition Yposition Zposition Zrotation Xrotation Yrotation 
		JOINT Spine
		{
			OFFSET 15.7357 0.0 0.0
			CHANNELS 6 Xposition Yposition Zposition Zrotation Xrotation Yrotation 
			JOINT Chest
			{
				OFFSET 8.98455 -0.406207 0.0
				CHANNELS 6 Xposition Yposition Zposition Zrotation Xrotation Yrotation 
				JOINT Neck
				{
					OFFSET 16.3773 0.0 0.0
					CHANNELS 6 Xposition Yposition Zposition Zrotation Xrotation Yrotation 
					JOINT Head
					{
						OFFSET 6.45672 0.0 0.0
						CHANNELS 6 Xposition Yposition Zposition Zrotation Xrotation Yrotation 
						End Site
						{
							OFFSET 0.0 0.0 0.0
						}
					}
				}
				JOINT Shoulder_L
				{
					OFFSET 12.9942 -0.242716 4.98039
					CHANNELS 6 Xposition Yposition Zposition Zrotation Xrotation Yrotation 
					JOINT UpperArm_L
					{
						OFFSET 5.34809 0.0 0.0
						CHANNELS 6 Xposition Yposition Zposition Zrotation Xrotation Yrotation 
						JOINT LowerArm_L
						{
							OFFSET 24.3286 1.87007e-05 0.0
							CHANNELS 6 Xposition Yposition Zposition Zrotation Xrotation Yrotation 
							JOINT Hand_L
							{
								OFFSET 22.2916 0.0 0.0
								CHANNELS 6 Xposition Yposition Zposition Zrotation Xrotation Yrotation 
								End Site
								{
									OFFSET 0.0 0.0 0.0
								}
							}
						}
					}
				}
				JOINT Shoulder_R
				{
					OFFSET 12.9945 -0.242716 -4.98039
					CHANNELS 6 Xposition Yposition Zposition Zrotation Xrotation Yrotation 
					JOINT UpperArm_R
					{
						OFFSET -5.34813 0.0 0.0
						CHANNELS 6 Xposition Yposition Zposition Zrotation Xrotation Yrotation 
						JOINT LowerArm_R
						{
							OFFSET -24.3289 0.000322201 0.0
							CHANNELS 6 Xposition Yposition Zposition Zrotation Xrotation Yrotation 
							JOINT Hand_R
							{
								OFFSET -22.2915 -0.000108084 0.0
								CHANNELS 6 Xposition Yposition Zposition Zrotation Xrotation Yrotation 
								End Site
								{
									OFFSET 0.0 0.0 0.0
								}
							}
						}
					}
				}
			}
		}
		JOINT UpperLeg_L
		{
			OFFSET -2.19248 -6.46944 0.0
			CHANNELS 6 Xposition Yposition Zposition Zrotation Xrotation Yrotation 
			JOINT LowerLeg_L
			{
				OFFSET 39.0811 0.0 -1.23785e-05
				CHANNELS 6 Xposition Yposition Zposition Zrotation Xrotation Yrotation 
				JOINT Foot_L
				{
					OFFSET 40.9854 0.0 -1.26872e-05
					CHANNELS 6 Xposition Yposition Zposition Zrotation Xrotation Yrotation 
					JOINT Toes_L
					{
						OFFSET 11.7543 0.0 0.0
						CHANNELS 6 Xposition Yposition Zposition Zrotation Xrotation Yrotation 
						End Site
						{
							OFFSET 0.0 0.0 0.0
						}
					}
				}
			}
		}
		JOINT UpperLeg_R
		{
			OFFSET -2.19251 6.46944 0.0
			CHANNELS 6 Xposition Yposition Zposition Zrotation Xrotation Yrotation 
			JOINT LowerLeg_R
			{
				OFFSET -39.0811 -0.00228153 -0.0401928
				CHANNELS 6 Xposition Yposition Zposition Zrotation Xrotation Yrotation 
				JOINT Foot_R
				{
					OFFSET -40.9854 0.0 0.0
					CHANNELS 6 Xposition Yposition Zposition Zrotation Xrotation Yrotation 
					JOINT Toes_R
					{
						OFFSET -11.7543 0.0 0.0
						CHANNELS 6 Xposition Yposition Zposition Zrotation Xrotation Yrotation 
						End Site
						{
							OFFSET 0.0 0.0 0.0
						}
					}
				}
			}
		}
	}
}
MOTION
Frames:	6
Frame Time:	0.0333333
0.000000 0.000000 0.000000 0.000000 0.000000 -0.000000 -4.760820 92.115800 -2.310360 84.378300 1.881730 4.535050 15.735700 0.000005 -0.000001 65.347800 87.381200 -61.181200 8.984550 -0.406207 -0.000000 -2.899850 -2.571150 8.270370 16.377300 -0.000001 -0.000001 11.611000 3.082970 7.426190 6.456720 -0.000001 -0.000000 8.238470 7.697280 15.985400 12.994200 -0.242716 4.980390 -91.563200 4.560980 -71.059000 5.348090 -0.000007 -0.000001 -77.972600 -5.856220 -3.778900 24.328600 0.000019 0.000005 38.203600 -40.010600 -129.246000 22.291600 -0.000001 0.000005 44.590400 5.100210 5.108660 12.994500 -0.242716 -4.980390 87.570400 6.737660 -70.117500 -5.348130 -0.000001 -0.000004 -66.963200 1.448730 -4.498640 -24.328900 0.000322 -0.000009 20.935300 -21.890500 -134.261000 -22.291500 -0.000108 -0.000004 58.109300 5.665210 -16.698300 -2.192480 -6.469440 -0.000000 -171.276000 2.667480 -4.848240 39.081100 -0.000007 -0.000012 0.365427 -0.692644 27.816200 40.985400 -0.000006 -0.000013 -0.082909 8.585490 -75.101100 11.754300 -0.000000 0.000003 0.000527 0.158233 -10.159400 -2.192510 6.469440 -0.000001 -169.614000 8.734180 -177.528000 -39.081100 -0.002282 -0.040193 0.105116 -0.379785 15.003300 -40.985400 0.000008 0.000006 5.755230 1.493960 -69.818000 -11.754300 -0.000006 -0.000006 -0.009732 0.269293 -5.633260
0.000000 0.000000 0.000000 0.000000 0.000000 -0.000000 -4.762750 92.118500 -2.282470 84.374300 1.939150 4.523470 15.735700 0.000005 -0.000001 65.168500 87.380800 -61.014700 8.984550 -0.406207 -0.000000 -2.905910 -2.585380 8.244110 16.377300 -0.000001 -0.000001 11.633700 3.087860 7.364140 6.456720 -0.000001 -0.000000 8.217310 7.652330 15.908600 12.994200 -0.242716 4.980390 -91.564600 4.572330 -71.087000 5.348090 -0.000007 -0.000001 -77.982700 -5.886950 -3.805990 24.328600 0.000019 0.000005 38.384000 -40.110200 -129.122000 22.291600 -0.000001 0.000005 44.579300 5.089660 5.349450 12.994500 -0.242716 -4.980390 87.593400 6.675520 -70.122700 -5.348130 -0.000001 -0.000004 -67.002100 1.502300 -4.527810 -24.328900 0.000322 -0.000009 20.966700 -21.890900 -134.215000 -22.291500 -0.000108 -0.000004 58.213700 5.665610 -16.751800 -2.192480 -6.469440 -0.000000 -171.264000 2.715150 -4.833910 39.081100 -0.000007 -0.000012 0.363366 -0.689929 27.775300 40.985400 -0.000006 -0.000013 -0.082032 8.612890 -75.046700 11.754300 -0.000000 0.000003 0.000687 0.155117 -10.285900 -2.192510 6.469440 -0.000001 -169.607000 8.668690 -177.520000 -39.081100 -0.002282 -0.040193 0.103043 -0.372302 14.993700 -40.985400 0.000008 0.000006 5.624170 1.422990 -69.808400 -11.754300 -0.000006 -0.000006 -0.009772 0.269590 -5.621140
0.000000 0.000000 0.000000 0.000000 0.000000 -0.000000 -4.747550 92.123300 -2.257310 84.401800 2.024170 4.457420 15.735700 0.000005 -0.000001 64.567300 87.391900 -60.441100 8.984550 -0.406207 -0.000000 -2.948720 -2.624550 8.187140 16.377300 -0.000001 -0.000001 11.617100 3.086540 7.305720 6.456720 -0.000001 -0.000000 8.193250 7.644520 15.899000 12.994200 -0.242716 4.980390 -91.557200 4.544890 -71.065000 5.348090 -0.000007 -0.000001 -78.034300 -5.873950 -3.770050 24.328600 0.000019 0.000005 38.389300 -40.123400 -129.125000 22.291600 -0.000001 0.000005 44.750600 5.094570 5.237750 12.994500 -0.242716 -4.980390 87.608800 6.645350 -70.158200 -5.348130 -0.000001 -0.000004 -66.999700 1.530210 -4.523320 -24.328900 0.000322 -0.000009 20.893800 -21.838600 -134.259000 -22.291500 -0.000108 -0.000004 58.280100 5.664770 -16.641300 -2.192480 -6.469440 -0.000000 -171.313000 2.778320 -4.876890 39.081100 -0.000007 -0.000012 0.362679 -0.689885 27.732200 40.985400 -0.000006 -0.000013 -0.074340 8.579540 -75.042400 11.754300 -0.000000 0.000003 0.000708 0.154716 -10.302200 -2.192510 6.469440 -0.000001 -169.638000 8.705540 -177.558000 -39.081100 -0.002282 -0.040193 0.102662 -0.371899 14.954400 -40.985400 0.000008 0.000006 5.622280 1.388130 -69.805100 -11.754300 -0.000006 -0.000006 -0.009671 0.268829 -5.652230
0.000000 0.000000 0.000000 0.000000 0.000000 -0.000000 -4.728080 92.127100 -2.232220 84.397000 2.036830 4.413260 15.735700 0.000005 -0.000001 64.501200 87.415700 -60.388800 8.984550 -0.406207 -0.000000 -2.995350 -2.609800 8.158930 16.377300 -0.000001 -0.000001 11.670100 3.079580 7.283620 6.456720 -0.000001 -0.000000 8.179530 7.613780 15.828600 12.994200 -0.242716 4.980390 -91.548200 4.524020 -71.085900 5.348090 -0.000007 -0.000001 -78.031200 -5.822450 -3.711290 24.328600 0.000019 0.000005 38.480300 -40.162400 -129.056000 22.291600 -0.000001 0.000005 44.819400 5.097720 5.165710 12.994500 -0.242716 -4.980390 87.625400 6.598140 -70.155600 -5.348130 -0.000001 -0.000004 -67.012900 1.506180 -4.492270 -24.328900 0.000322 -0.000009 20.890500 -21.806500 -134.224000 -22.291500 -0.000108 -0.000004 58.273300 5.664700 -16.631500 -2.192480 -6.469440 -0.000000 -171.324000 2.791930 -4.893770 39.081100 -0.000007 -0.000012 0.363170 -0.691628 27.704600 40.985400 -0.000006 -0.000013 -0.061593 8.565550 -75.022300 11.754300 -0.000000 0.000003 0.000711 0.154658 -10.304500 -2.192510 6.469440 -0.000001 -169.637000 8.587260 -177.574000 -39.081100 -0.002282 -0.040193 0.101307 -0.367377 14.932900 -40.985400 0.000008 0.000006 5.560940 1.346190 -69.798400 -11.754300 -0.000006 -0.000006 -0.009591 0.268222 -5.677050
0.000000 0.000000 0.000000 0.000000 0.000000 -0.000000 -4.712570 92.136400 -2.191260 84.432000 2.023880 4.368920 15.735700 0.000005 -0.000001 64.605000 87.425100 -60.530100 8.984550 -0.406207 -0.000000 -3.010070 -2.590310 8.084250 16.377300 -0.000001 -0.000001 11.649200 3.084740 7.253870 6.456720 -0.000001 -0.000000 8.173220 7.642640 15.839700 12.994200 -0.242716 4.980390 -91.540800 4.499830 -71.076500 5.348090 -0.000007 -0.000001 -78.041700 -5.948170 -3.800620 24.328600 0.000019 0.000005 38.374800 -40.109400 -129.131000 22.291600 -0.000001 0.000005 44.779800 5.104080 5.019860 12.994500 -0.242716 -4.980390 87.641400 6.566700 -70.192600 -5.348130 -0.000001 -0.000004 -67.078300 1.485590 -4.468350 -24.328900 0.000322 -0.000009 20.811800 -21.726100 -134.241000 -22.291500 -0.000108 -0.000004 58.292400 5.665420 -16.726900 -2.192480 -6.469440 -0.000000 -171.360000 2.801290 -4.858220 39.081100 -0.000007 -0.000012 0.356439 -0.681637 27.606600 40.985400 -0.000006 -0.000013 -0.058178 8.564010 -75.002900 11.754300 -0.000000 0.000003 0.000796 0.152928 -10.374700 -2.192510 6.469440 -0.000001 -169.702000 8.628840 -177.576000 -39.081100 -0.002282 -0.040193 0.099410 -0.360837 14.910200 -40.985400 0.000008 0.000006 5.449530 1.405150 -69.796400 -11.754300 -0.000006 -0.000006 -0.009622 0.268459 -5.667380
0.000000 0.000000 0.000000 0.000000 0.000000 -0.000000 -4.687520 92.131800 -2.166610 84.432700 2.028820 4.303890 15.735700 0.000005 -0.000001 64.580400 87.443900 -60.514700 8.984550 -0.406207 -0.000000 -3.045660 -2.576600 8.065320 16.377300 -0.000001 -0.000001 11.649100 3.111320 7.194900 6.456720 -0.000001 -0.000000 8.139130 7.600010 15.797300 12.994200 -0.242716 4.980390 -91.535900 4.489290 -71.091000 5.348090 -0.000007 -0.000001 -78.060000 -5.954620 -3.810400 24.328600 0.000019 0.000005 38.592600 -40.200100 -128.965000 22.291600 -0.000001 0.000005 44.900400 5.090240 5.336180 12.994500 -0.242716 -4.980390 87.672600 6.475430 -70.181600 -5.348130 -0.000001 -0.000004 -67.175200 1.454070 -4.471140 -24.328900 0.000322 -0.000009 20.696300 -21.606500 -134.265000 -22.291500 -0.000108 -0.000004 58.283200 5.666050 -16.811800 -2.192480 -6.469440 -0.000000 -171.391000 2.827080 -4.914600 39.081100 -0.000007 -0.000012 0.363250 -0.693818 27.635200 40.985400 -0.000006 -0.000013 -0.043162 8.516970 -75.053000 11.754300 -0.000000 0.000003 0.000600 0.156829 -10.216400 -2.192510 6.469440 -0.000001 -169.694000 8.612130 -177.606000 -39.081100 -0.002282 -0.040193 0.101323 -0.368759 14.881700 -40.985400 0.000008 0.000006 5.576280 1.377980 -69.833600 -11.754300 -0.000006 -0.000006 -0.009908 0.270616 -5.579160
